<?xml version="1.0" encoding="UTF-8"?>
<svg class="social-network-icon" id="svg" version="1.1" xmlns="http://www.w3.org/2000/svg" xmlns:xlink="http://www.w3.org/1999/xlink" viewBox="0, 0, 400,400">
    <path id="path0" d="M0.000 200.000 L 0.000 400.000 200.000 400.000 L 400.000 400.000 400.000 200.000 L 400.000 0.000 200.000 0.000 L 0.000 0.000 0.000 200.000 M227.778 55.556 C 231.555 61.667,246.296 66.667,260.536 66.667 C 338.835 66.667,398.728 242.917,334.019 282.910 C 327.531 286.920,322.222 285.200,322.222 279.089 C 322.222 272.978,327.222 264.888,333.333 261.111 C 371.096 237.772,315.605 155.340,262.390 155.726 C 221.458 156.022,210.988 170.624,214.466 222.565 C 217.865 273.328,186.988 329.226,163.551 314.741 C 157.568 311.043,154.956 314.964,157.748 323.453 C 160.539 331.943,178.109 340.413,196.793 342.275 C 258.162 348.392,300.552 265.804,259.389 220.319 C 249.275 209.144,246.000 200.000,252.111 200.000 C 268.956 200.000,296.230 235.463,303.384 266.667 C 317.014 326.120,233.867 378.508,172.269 349.277 C 151.804 339.566,127.922 330.573,119.198 329.292 C 35.554 317.016,-1.983 100.000,79.538 100.000 C 86.335 100.000,103.481 87.500,117.640 72.222 C 144.371 43.379,213.762 32.878,227.778 55.556 M141.925 75.000 C 108.973 112.526,107.686 142.030,137.694 172.037 C 170.985 205.328,159.322 209.956,124.317 177.345 C 110.943 164.885,100.000 144.885,100.000 132.900 C 100.000 101.355,68.346 106.108,60.118 138.889 C 49.000 183.187,63.439 218.923,97.213 230.697 C 149.573 248.950,212.153 207.708,180.351 175.907 C 167.767 163.323,180.404 104.040,199.806 84.638 C 218.232 66.212,212.827 55.556,185.055 55.556 C 170.725 55.556,151.316 64.306,141.925 75.000 M233.647 90.861 C 200.425 103.255,189.284 119.156,189.059 154.500 C 188.891 180.964,189.115 181.017,212.282 160.055 C 228.359 145.509,250.948 139.222,284.505 139.954 C 311.360 140.540,333.257 138.040,333.163 134.399 C 332.332 102.051,273.106 76.140,233.647 90.861 M166.952 235.144 C 145.514 252.654,130.030 256.091,96.641 250.752 C 44.764 242.456,41.390 271.412,90.989 299.251 C 130.271 321.300,177.984 304.980,198.326 262.538 C 218.081 221.321,201.549 206.886,166.952 235.144 " stroke="none" fill="#d04e41" fill-rule="evenodd"></path>
</svg>