<?xml version="1.0" encoding="UTF-8"?>
<svg width="800" height="800" version="1.1" viewBox="0 0 211.67 211.67" xmlns="http://www.w3.org/2000/svg">
 <g transform="translate(48.717 4.5273)">
  <path d="m-40.383 200.67c-0.43656-0.19403-1.0914-0.67521-1.4552-1.0693l-0.66146-0.7165-0.0672-97.281c-0.0648-93.859-0.0502-97.313 0.41731-98.185 0.26649-0.4969 0.89108-1.1215 1.388-1.388 0.87166-0.46748 4.3259-0.48216 98.189-0.41732l97.285 0.06721 0.81702 0.78276c0.44936 0.43052 0.93843 1.2044 1.0868 1.7198 0.18177 0.63131 0.24459 32.503 0.19253 97.689l-0.0773 96.752-0.54797 0.74701c-0.30139 0.41085-0.95623 0.95517-1.4552 1.2096-0.85893 0.43797-6.056 0.46208-97.612 0.45266-79.999-8e-3 -96.842-0.0709-97.499-0.36273zm33.999-25.834v-20.651l10.914 0.0797c10.848 0.0792 10.922 0.0835 12.308 0.70989 1.8012 0.81403 3.8353 3.0139 4.4231 4.7836 0.36525 1.0997 0.42392 2.2545 0.35301 6.9484-0.07967 5.2736-0.12338 5.7013-0.69133 6.765-0.82149 1.5385-2.3408 3.0064-3.912 3.7797-1.2436 0.61206-1.5748 0.64487-7.3218 0.7251l-6.0193 0.084v-7.9733h10.054v-7.9375h-12.435v33.338h25.132l0.06777-20.571 0.06777-20.571 28.178-0.137v7.9421h-20.373v26.194h20.373v7.1438h4.7625v-41.275h8.4166l12.228 23.625-0.13952 16.849-3.2515-6.2802c-1.7883-3.4541-4.6127-8.8995-6.2763-12.101l-3.0248-5.8208-0.0075 12.502-0.0075 12.502h14.817v-41.275h7.9375v41.275h9.8641l-1.266-1.1144c-0.71615-0.63038-1.5356-1.6934-1.8867-2.4474l-0.62073-1.333-0.0026-13.163-0.0025-13.163h7.9375v24.077h16.404v7.1438h5.2917v-41.275h25.4v-147.37h-188.65l4e-3 74.943c2e-3 41.219 0.0915 74.818 0.19844 74.665 0.10691-0.15322 0.6612-0.62947 1.2318-1.0583l1.0374-0.77977 21.87-0.1544v7.9596h-17.727v8.9958l7.3422 6e-3c6.5292 5e-3 7.4596 0.0592 8.4028 0.48764 1.3339 0.60597 2.6634 2.1013 3.0245 3.4019 0.15265 0.54968 0.27821 3.2914 0.27902 6.0926l0.0015 5.0932h-7.9375v-7.1438h-6.3139c-7.1404 0-8.6866-0.19824-10.289-1.3191l-1.1245-0.7867v11.102h25.665l-0.0016 1.3891c-0.0024 2.1372-0.46111 3.3765-1.714 4.6293l-1.1254 1.1254h8.1325v-20.651zm42.779 3.2817c-0.09972-0.0997-0.18132-1.8879-0.18132-3.9737v-3.7924h12.185l-0.07322 3.9026-0.07322 3.9026-5.838 0.0711c-3.2109 0.0391-5.9195-0.0105-6.0193-0.11025zm59.959-17.46c0.26715-2.5884 2.4521-5.2278 4.8877-5.9042 0.59138-0.16424 4.6625-0.27429 10.18-0.27517l9.1943-1e-3v7.6729h-24.416zm-87.922-80.011v-57.426l27.847 0.09659c27.207 0.09436 27.914 0.10966 30.758 0.66525 12.711 2.4836 23.003 7.8439 31.487 16.4 8.7871 8.8613 14.585 20.919 15.994 33.264 0.40517 3.5492 0.33718 11.279-0.1308 14.869-1.6842 12.921-7.6882 24.604-17.381 33.82-9.7823 9.3013-21.675 14.454-35.679 15.458-2.2116 0.15854-14.129 0.27458-28.355 0.2761l-24.54 3e-3zm52.784 50.544c2.0373-0.14435 4.9543-0.50697 6.4823-0.80581 5.8017-1.1347 12.773-3.9948 17.859-7.3272 11.282-7.3915 19.058-18.954 21.851-32.493 0.79332-3.845 1.0024-13.118 0.39033-17.315-1.5925-10.921-6.4053-20.507-14.275-28.433-7.5914-7.6449-15.812-11.922-27.568-14.344-1.8239-0.37573-5.2585-0.44482-26.634-0.53576l-24.54-0.10441v101.63l21.365-2e-3c11.751-1e-3 23.032-0.12043 25.069-0.26478zm-27.384-50.651v-31.897l13.295 0.0011c10.501 7.93e-4 13.805 0.0838 15.722 0.39464 6.4569 1.0472 11.779 3.7181 16.599 8.3297 4.7914 4.5849 7.6172 9.399 9.1664 15.616 0.81334 3.2642 1.0022 9.5938 0.39586 13.266-1.1234 6.8041-4.3058 12.711-9.4788 17.595-3.922 3.7024-8.5652 6.3311-13.611 7.7059l-2.5869 0.70477-29.501 0.1796v-31.897zm117.47 94.707v-13.097h-17.462v26.194h17.462zm-15.61-0.92604v-3.9688h11.906v7.9375h-11.906z" fill="#a8b7c3" stroke="#000" stroke-width="1.0583"/>
 </g>
</svg>
