<?xml version="1.0" encoding="UTF-8"?>
<svg width="512" height="390" enable-background="new 0 0 512 512" version="1.1" viewBox="0 0 512 390" xml:space="preserve" xmlns="http://www.w3.org/2000/svg">
	<path d="m467 0h-422c-24.782 0-45 20.196-45 45v300c0 24.72 20.128 45 45 45h422c24.72 0 45-20.128 45-45v-300c0-24.72-20.128-45-45-45zm-6.214 30-203.83 203.83-205.6-203.83zm-430.79 308.79v-287.72l144.48 143.24zm21.213 21.212 144.57-144.57 50.657 50.222c5.864 5.814 15.327 5.795 21.167-0.046l49.393-49.393 143.79 143.79zm430.79-21.213-143.79-143.79 143.79-143.79z"/>
</svg>